<?xml version="1.0" encoding="utf-8" standalone="no"?>
<!DOCTYPE svg PUBLIC "-//W3C//DTD SVG 1.1//EN"
  "http://www.w3.org/Graphics/SVG/1.1/DTD/svg11.dtd">
<!-- Created with matplotlib (https://matplotlib.org/) -->
<svg height="345.6pt" version="1.1" viewBox="0 0 460.8 345.6" width="460.8pt" xmlns="http://www.w3.org/2000/svg" xmlns:xlink="http://www.w3.org/1999/xlink">
 <defs>
  <style type="text/css">
*{stroke-linecap:butt;stroke-linejoin:round;}
  </style>
 </defs>
 <g id="figure_1">
  <g id="patch_1">
   <path d="M 0 345.6 
L 460.8 345.6 
L 460.8 0 
L 0 0 
z
" style="fill:#ffffff;"/>
  </g>
  <g id="axes_1">
   <g id="patch_2">
    <path d="M 57.6 307.584 
L 414.72 307.584 
L 414.72 41.472 
L 57.6 41.472 
z
" style="fill:#ffffff;"/>
   </g>
   <g id="PathCollection_1">
    <defs>
     <path d="M 0 3 
C 0.795609 3 1.55874 2.683901 2.12132 2.12132 
C 2.683901 1.55874 3 0.795609 3 0 
C 3 -0.795609 2.683901 -1.55874 2.12132 -2.12132 
C 1.55874 -2.683901 0.795609 -3 0 -3 
C -0.795609 -3 -1.55874 -2.683901 -2.12132 -2.12132 
C -2.683901 -1.55874 -3 -0.795609 -3 0 
C -3 0.795609 -2.683901 1.55874 -2.12132 2.12132 
C -1.55874 2.683901 -0.795609 3 0 3 
z
" id="m33ce3b9e57" style="stroke:#1f77b4;"/>
    </defs>
    <g clip-path="url(#pfdde547e7e)">
     <use style="fill:#1f77b4;stroke:#1f77b4;" x="73.832727" xlink:href="#m33ce3b9e57" y="269.081792"/>
     <use style="fill:#1f77b4;stroke:#1f77b4;" x="75.504364" xlink:href="#m33ce3b9e57" y="279.907936"/>
     <use style="fill:#1f77b4;stroke:#1f77b4;" x="83.340838" xlink:href="#m33ce3b9e57" y="277.303644"/>
     <use style="fill:#1f77b4;stroke:#1f77b4;" x="87.821891" xlink:href="#m33ce3b9e57" y="284.446511"/>
     <use style="fill:#1f77b4;stroke:#1f77b4;" x="91.740669" xlink:href="#m33ce3b9e57" y="282.890905"/>
     <use style="fill:#1f77b4;stroke:#1f77b4;" x="92.665345" xlink:href="#m33ce3b9e57" y="284.913495"/>
     <use style="fill:#1f77b4;stroke:#1f77b4;" x="98.272417" xlink:href="#m33ce3b9e57" y="285.151028"/>
     <use style="fill:#1f77b4;stroke:#1f77b4;" x="103.0008" xlink:href="#m33ce3b9e57" y="286.129614"/>
     <use style="fill:#1f77b4;stroke:#1f77b4;" x="103.613231" xlink:href="#m33ce3b9e57" y="285.39134"/>
     <use style="fill:#1f77b4;stroke:#1f77b4;" x="108.918016" xlink:href="#m33ce3b9e57" y="288.518335"/>
     <use style="fill:#1f77b4;stroke:#1f77b4;" x="116.335325" xlink:href="#m33ce3b9e57" y="285.634496"/>
     <use style="fill:#1f77b4;stroke:#1f77b4;" x="116.858513" xlink:href="#m33ce3b9e57" y="286.636958"/>
     <use style="fill:#1f77b4;stroke:#1f77b4;" x="125.250459" xlink:href="#m33ce3b9e57" y="286.636958"/>
     <use style="fill:#1f77b4;stroke:#1f77b4;" x="125.694484" xlink:href="#m33ce3b9e57" y="283.543227"/>
     <use style="fill:#1f77b4;stroke:#1f77b4;" x="132.128077" xlink:href="#m33ce3b9e57" y="285.151028"/>
     <use style="fill:#1f77b4;stroke:#1f77b4;" x="134.475077" xlink:href="#m33ce3b9e57" y="283.989905"/>
     <use style="fill:#1f77b4;stroke:#1f77b4;" x="140.330071" xlink:href="#m33ce3b9e57" y="283.543227"/>
     <use style="fill:#1f77b4;stroke:#1f77b4;" x="142.094242" xlink:href="#m33ce3b9e57" y="281.444832"/>
     <use style="fill:#1f77b4;stroke:#1f77b4;" x="143.023956" xlink:href="#m33ce3b9e57" y="284.446511"/>
     <use style="fill:#1f77b4;stroke:#1f77b4;" x="148.184122" xlink:href="#m33ce3b9e57" y="285.151028"/>
     <use style="fill:#1f77b4;stroke:#1f77b4;" x="154.179382" xlink:href="#m33ce3b9e57" y="279.180554"/>
     <use style="fill:#1f77b4;stroke:#1f77b4;" x="157.205579" xlink:href="#m33ce3b9e57" y="276.347824"/>
     <use style="fill:#1f77b4;stroke:#1f77b4;" x="160.963193" xlink:href="#m33ce3b9e57" y="280.662017"/>
     <use style="fill:#1f77b4;stroke:#1f77b4;" x="167.488892" xlink:href="#m33ce3b9e57" y="275.734453"/>
     <use style="fill:#1f77b4;stroke:#1f77b4;" x="171.173841" xlink:href="#m33ce3b9e57" y="260.533516"/>
     <use style="fill:#1f77b4;stroke:#1f77b4;" x="172.393038" xlink:href="#m33ce3b9e57" y="267.810474"/>
     <use style="fill:#1f77b4;stroke:#1f77b4;" x="178.280131" xlink:href="#m33ce3b9e57" y="251.657257"/>
     <use style="fill:#1f77b4;stroke:#1f77b4;" x="181.527902" xlink:href="#m33ce3b9e57" y="242.970681"/>
     <use style="fill:#1f77b4;stroke:#1f77b4;" x="184.175391" xlink:href="#m33ce3b9e57" y="255.115163"/>
     <use style="fill:#1f77b4;stroke:#1f77b4;" x="189.903092" xlink:href="#m33ce3b9e57" y="232.971663"/>
     <use style="fill:#1f77b4;stroke:#1f77b4;" x="193.744705" xlink:href="#m33ce3b9e57" y="244.764029"/>
     <use style="fill:#1f77b4;stroke:#1f77b4;" x="195.034469" xlink:href="#m33ce3b9e57" y="258.282406"/>
     <use style="fill:#1f77b4;stroke:#1f77b4;" x="202.05432" xlink:href="#m33ce3b9e57" y="211.649065"/>
     <use style="fill:#1f77b4;stroke:#1f77b4;" x="204.843742" xlink:href="#m33ce3b9e57" y="241.040297"/>
     <use style="fill:#1f77b4;stroke:#1f77b4;" x="207.081279" xlink:href="#m33ce3b9e57" y="241.124217"/>
     <use style="fill:#1f77b4;stroke:#1f77b4;" x="210.650951" xlink:href="#m33ce3b9e57" y="260.678209"/>
     <use style="fill:#1f77b4;stroke:#1f77b4;" x="211.122396" xlink:href="#m33ce3b9e57" y="220.748668"/>
     <use style="fill:#1f77b4;stroke:#1f77b4;" x="218.1562" xlink:href="#m33ce3b9e57" y="259.479623"/>
     <use style="fill:#1f77b4;stroke:#1f77b4;" x="223.050834" xlink:href="#m33ce3b9e57" y="257.521341"/>
     <use style="fill:#1f77b4;stroke:#1f77b4;" x="230.97215" xlink:href="#m33ce3b9e57" y="213.550667"/>
     <use style="fill:#1f77b4;stroke:#1f77b4;" x="235.857664" xlink:href="#m33ce3b9e57" y="236.433177"/>
     <use style="fill:#1f77b4;stroke:#1f77b4;" x="238.914054" xlink:href="#m33ce3b9e57" y="189.970436"/>
     <use style="fill:#1f77b4;stroke:#1f77b4;" x="241.538286" xlink:href="#m33ce3b9e57" y="216.618045"/>
     <use style="fill:#1f77b4;stroke:#1f77b4;" x="244.68615" xlink:href="#m33ce3b9e57" y="191.650703"/>
     <use style="fill:#1f77b4;stroke:#1f77b4;" x="246.764101" xlink:href="#m33ce3b9e57" y="209.707179"/>
     <use style="fill:#1f77b4;stroke:#1f77b4;" x="254.218715" xlink:href="#m33ce3b9e57" y="210.186597"/>
     <use style="fill:#1f77b4;stroke:#1f77b4;" x="253.742228" xlink:href="#m33ce3b9e57" y="205.49759"/>
     <use style="fill:#1f77b4;stroke:#1f77b4;" x="258.394084" xlink:href="#m33ce3b9e57" y="197.538003"/>
     <use style="fill:#1f77b4;stroke:#1f77b4;" x="266.90226" xlink:href="#m33ce3b9e57" y="161.028997"/>
     <use style="fill:#1f77b4;stroke:#1f77b4;" x="267.731113" xlink:href="#m33ce3b9e57" y="208.659059"/>
     <use style="fill:#1f77b4;stroke:#1f77b4;" x="274.440816" xlink:href="#m33ce3b9e57" y="187.900025"/>
     <use style="fill:#1f77b4;stroke:#1f77b4;" x="275.204488" xlink:href="#m33ce3b9e57" y="169.259774"/>
     <use style="fill:#1f77b4;stroke:#1f77b4;" x="276.915858" xlink:href="#m33ce3b9e57" y="195.389694"/>
     <use style="fill:#1f77b4;stroke:#1f77b4;" x="280.771092" xlink:href="#m33ce3b9e57" y="206.197388"/>
     <use style="fill:#1f77b4;stroke:#1f77b4;" x="290.186953" xlink:href="#m33ce3b9e57" y="211.965325"/>
     <use style="fill:#1f77b4;stroke:#1f77b4;" x="294.238652" xlink:href="#m33ce3b9e57" y="184.103238"/>
     <use style="fill:#1f77b4;stroke:#1f77b4;" x="297.732758" xlink:href="#m33ce3b9e57" y="181.245083"/>
     <use style="fill:#1f77b4;stroke:#1f77b4;" x="300.815036" xlink:href="#m33ce3b9e57" y="193.836799"/>
     <use style="fill:#1f77b4;stroke:#1f77b4;" x="306.662324" xlink:href="#m33ce3b9e57" y="162.317893"/>
     <use style="fill:#1f77b4;stroke:#1f77b4;" x="308.204746" xlink:href="#m33ce3b9e57" y="179.933212"/>
     <use style="fill:#1f77b4;stroke:#1f77b4;" x="313.549755" xlink:href="#m33ce3b9e57" y="141.159411"/>
     <use style="fill:#1f77b4;stroke:#1f77b4;" x="316.843127" xlink:href="#m33ce3b9e57" y="125.417011"/>
     <use style="fill:#1f77b4;stroke:#1f77b4;" x="320.760103" xlink:href="#m33ce3b9e57" y="141.712213"/>
     <use style="fill:#1f77b4;stroke:#1f77b4;" x="323.218945" xlink:href="#m33ce3b9e57" y="135.437612"/>
     <use style="fill:#1f77b4;stroke:#1f77b4;" x="328.415002" xlink:href="#m33ce3b9e57" y="159.470324"/>
     <use style="fill:#1f77b4;stroke:#1f77b4;" x="331.334967" xlink:href="#m33ce3b9e57" y="169.033644"/>
     <use style="fill:#1f77b4;stroke:#1f77b4;" x="335.818718" xlink:href="#m33ce3b9e57" y="127.689913"/>
     <use style="fill:#1f77b4;stroke:#1f77b4;" x="337.570382" xlink:href="#m33ce3b9e57" y="117.626979"/>
     <use style="fill:#1f77b4;stroke:#1f77b4;" x="339.987472" xlink:href="#m33ce3b9e57" y="124.391159"/>
     <use style="fill:#1f77b4;stroke:#1f77b4;" x="342.16542" xlink:href="#m33ce3b9e57" y="124.978882"/>
     <use style="fill:#1f77b4;stroke:#1f77b4;" x="351.14385" xlink:href="#m33ce3b9e57" y="87.989483"/>
     <use style="fill:#1f77b4;stroke:#1f77b4;" x="352.834059" xlink:href="#m33ce3b9e57" y="166.581297"/>
     <use style="fill:#1f77b4;stroke:#1f77b4;" x="358.135917" xlink:href="#m33ce3b9e57" y="88.049083"/>
     <use style="fill:#1f77b4;stroke:#1f77b4;" x="361.49455" xlink:href="#m33ce3b9e57" y="106.687881"/>
     <use style="fill:#1f77b4;stroke:#1f77b4;" x="368.332124" xlink:href="#m33ce3b9e57" y="128.221889"/>
     <use style="fill:#1f77b4;stroke:#1f77b4;" x="369.446377" xlink:href="#m33ce3b9e57" y="107.62627"/>
     <use style="fill:#1f77b4;stroke:#1f77b4;" x="377.037202" xlink:href="#m33ce3b9e57" y="72.917708"/>
     <use style="fill:#1f77b4;stroke:#1f77b4;" x="380.430192" xlink:href="#m33ce3b9e57" y="94.539898"/>
     <use style="fill:#1f77b4;stroke:#1f77b4;" x="383.186351" xlink:href="#m33ce3b9e57" y="74.302122"/>
     <use style="fill:#1f77b4;stroke:#1f77b4;" x="386.037702" xlink:href="#m33ce3b9e57" y="129.373797"/>
     <use style="fill:#1f77b4;stroke:#1f77b4;" x="390.399537" xlink:href="#m33ce3b9e57" y="90.258489"/>
     <use style="fill:#1f77b4;stroke:#1f77b4;" x="394.351866" xlink:href="#m33ce3b9e57" y="123.122533"/>
     <use style="fill:#1f77b4;stroke:#1f77b4;" x="398.487273" xlink:href="#m33ce3b9e57" y="53.568"/>
    </g>
   </g>
   <g id="PathCollection_2">
    <defs>
     <path d="M 0 3 
C 0.795609 3 1.55874 2.683901 2.12132 2.12132 
C 2.683901 1.55874 3 0.795609 3 0 
C 3 -0.795609 2.683901 -1.55874 2.12132 -2.12132 
C 1.55874 -2.683901 0.795609 -3 0 -3 
C -0.795609 -3 -1.55874 -2.683901 -2.12132 -2.12132 
C -2.683901 -1.55874 -3 -0.795609 -3 0 
C -3 0.795609 -2.683901 1.55874 -2.12132 2.12132 
C -1.55874 2.683901 -0.795609 3 0 3 
z
" id="m99f2606765" style="stroke:#ff7f0e;"/>
    </defs>
    <g clip-path="url(#pfdde547e7e)">
     <use style="fill:#ff7f0e;stroke:#ff7f0e;" x="73.832727" xlink:href="#m99f2606765" y="279.723662"/>
     <use style="fill:#ff7f0e;stroke:#ff7f0e;" x="75.504364" xlink:href="#m99f2606765" y="282.890905"/>
     <use style="fill:#ff7f0e;stroke:#ff7f0e;" x="83.340838" xlink:href="#m99f2606765" y="281.645287"/>
     <use style="fill:#ff7f0e;stroke:#ff7f0e;" x="87.821891" xlink:href="#m99f2606765" y="286.636958"/>
     <use style="fill:#ff7f0e;stroke:#ff7f0e;" x="91.740669" xlink:href="#m99f2606765" y="286.129614"/>
     <use style="fill:#ff7f0e;stroke:#ff7f0e;" x="92.665345" xlink:href="#m99f2606765" y="285.634496"/>
     <use style="fill:#ff7f0e;stroke:#ff7f0e;" x="98.272417" xlink:href="#m99f2606765" y="287.690851"/>
     <use style="fill:#ff7f0e;stroke:#ff7f0e;" x="103.0008" xlink:href="#m99f2606765" y="286.38172"/>
     <use style="fill:#ff7f0e;stroke:#ff7f0e;" x="103.613231" xlink:href="#m99f2606765" y="286.129614"/>
     <use style="fill:#ff7f0e;stroke:#ff7f0e;" x="108.918016" xlink:href="#m99f2606765" y="287.422267"/>
     <use style="fill:#ff7f0e;stroke:#ff7f0e;" x="116.335325" xlink:href="#m99f2606765" y="288.518335"/>
     <use style="fill:#ff7f0e;stroke:#ff7f0e;" x="116.858513" xlink:href="#m99f2606765" y="286.636958"/>
     <use style="fill:#ff7f0e;stroke:#ff7f0e;" x="125.250459" xlink:href="#m99f2606765" y="286.636958"/>
     <use style="fill:#ff7f0e;stroke:#ff7f0e;" x="125.694484" xlink:href="#m99f2606765" y="284.678676"/>
     <use style="fill:#ff7f0e;stroke:#ff7f0e;" x="132.128077" xlink:href="#m99f2606765" y="281.444832"/>
     <use style="fill:#ff7f0e;stroke:#ff7f0e;" x="134.475077" xlink:href="#m99f2606765" y="285.151028"/>
     <use style="fill:#ff7f0e;stroke:#ff7f0e;" x="140.330071" xlink:href="#m99f2606765" y="285.39134"/>
     <use style="fill:#ff7f0e;stroke:#ff7f0e;" x="142.094242" xlink:href="#m99f2606765" y="281.645287"/>
     <use style="fill:#ff7f0e;stroke:#ff7f0e;" x="143.023956" xlink:href="#m99f2606765" y="285.880563"/>
     <use style="fill:#ff7f0e;stroke:#ff7f0e;" x="148.184122" xlink:href="#m99f2606765" y="285.151028"/>
     <use style="fill:#ff7f0e;stroke:#ff7f0e;" x="154.179382" xlink:href="#m99f2606765" y="279.180554"/>
     <use style="fill:#ff7f0e;stroke:#ff7f0e;" x="157.205579" xlink:href="#m99f2606765" y="282.258658"/>
     <use style="fill:#ff7f0e;stroke:#ff7f0e;" x="160.963193" xlink:href="#m99f2606765" y="278.306106"/>
     <use style="fill:#ff7f0e;stroke:#ff7f0e;" x="167.488892" xlink:href="#m99f2606765" y="288.238788"/>
     <use style="fill:#ff7f0e;stroke:#ff7f0e;" x="171.173841" xlink:href="#m99f2606765" y="228.759685"/>
     <use style="fill:#ff7f0e;stroke:#ff7f0e;" x="172.393038" xlink:href="#m99f2606765" y="228.229132"/>
     <use style="fill:#ff7f0e;stroke:#ff7f0e;" x="178.280131" xlink:href="#m99f2606765" y="270.436991"/>
     <use style="fill:#ff7f0e;stroke:#ff7f0e;" x="181.527902" xlink:href="#m99f2606765" y="227.624566"/>
     <use style="fill:#ff7f0e;stroke:#ff7f0e;" x="184.175391" xlink:href="#m99f2606765" y="225.698012"/>
     <use style="fill:#ff7f0e;stroke:#ff7f0e;" x="189.903092" xlink:href="#m99f2606765" y="231.551594"/>
     <use style="fill:#ff7f0e;stroke:#ff7f0e;" x="193.744705" xlink:href="#m99f2606765" y="220.748668"/>
     <use style="fill:#ff7f0e;stroke:#ff7f0e;" x="195.034469" xlink:href="#m99f2606765" y="226.466317"/>
     <use style="fill:#ff7f0e;stroke:#ff7f0e;" x="202.05432" xlink:href="#m99f2606765" y="222.814329"/>
     <use style="fill:#ff7f0e;stroke:#ff7f0e;" x="204.843742" xlink:href="#m99f2606765" y="223.492259"/>
     <use style="fill:#ff7f0e;stroke:#ff7f0e;" x="207.081279" xlink:href="#m99f2606765" y="216.995684"/>
     <use style="fill:#ff7f0e;stroke:#ff7f0e;" x="210.650951" xlink:href="#m99f2606765" y="213.572653"/>
     <use style="fill:#ff7f0e;stroke:#ff7f0e;" x="211.122396" xlink:href="#m99f2606765" y="217.108601"/>
     <use style="fill:#ff7f0e;stroke:#ff7f0e;" x="218.1562" xlink:href="#m99f2606765" y="217.718541"/>
     <use style="fill:#ff7f0e;stroke:#ff7f0e;" x="223.050834" xlink:href="#m99f2606765" y="209.441593"/>
     <use style="fill:#ff7f0e;stroke:#ff7f0e;" x="230.97215" xlink:href="#m99f2606765" y="207.916371"/>
     <use style="fill:#ff7f0e;stroke:#ff7f0e;" x="235.857664" xlink:href="#m99f2606765" y="205.517398"/>
     <use style="fill:#ff7f0e;stroke:#ff7f0e;" x="238.914054" xlink:href="#m99f2606765" y="187.019536"/>
     <use style="fill:#ff7f0e;stroke:#ff7f0e;" x="241.538286" xlink:href="#m99f2606765" y="206.653073"/>
     <use style="fill:#ff7f0e;stroke:#ff7f0e;" x="244.68615" xlink:href="#m99f2606765" y="200.585754"/>
     <use style="fill:#ff7f0e;stroke:#ff7f0e;" x="246.764101" xlink:href="#m99f2606765" y="194.119345"/>
     <use style="fill:#ff7f0e;stroke:#ff7f0e;" x="254.218715" xlink:href="#m99f2606765" y="192.104758"/>
     <use style="fill:#ff7f0e;stroke:#ff7f0e;" x="253.742228" xlink:href="#m99f2606765" y="197.645806"/>
     <use style="fill:#ff7f0e;stroke:#ff7f0e;" x="258.394084" xlink:href="#m99f2606765" y="191.05151"/>
     <use style="fill:#ff7f0e;stroke:#ff7f0e;" x="266.90226" xlink:href="#m99f2606765" y="181.06495"/>
     <use style="fill:#ff7f0e;stroke:#ff7f0e;" x="267.731113" xlink:href="#m99f2606765" y="189.707105"/>
     <use style="fill:#ff7f0e;stroke:#ff7f0e;" x="274.440816" xlink:href="#m99f2606765" y="174.382456"/>
     <use style="fill:#ff7f0e;stroke:#ff7f0e;" x="275.204488" xlink:href="#m99f2606765" y="182.170228"/>
     <use style="fill:#ff7f0e;stroke:#ff7f0e;" x="276.915858" xlink:href="#m99f2606765" y="173.499211"/>
     <use style="fill:#ff7f0e;stroke:#ff7f0e;" x="280.771092" xlink:href="#m99f2606765" y="175.568963"/>
     <use style="fill:#ff7f0e;stroke:#ff7f0e;" x="290.186953" xlink:href="#m99f2606765" y="172.708493"/>
     <use style="fill:#ff7f0e;stroke:#ff7f0e;" x="294.238652" xlink:href="#m99f2606765" y="166.678341"/>
     <use style="fill:#ff7f0e;stroke:#ff7f0e;" x="297.732758" xlink:href="#m99f2606765" y="167.677212"/>
     <use style="fill:#ff7f0e;stroke:#ff7f0e;" x="300.815036" xlink:href="#m99f2606765" y="167.881679"/>
     <use style="fill:#ff7f0e;stroke:#ff7f0e;" x="306.662324" xlink:href="#m99f2606765" y="159.600342"/>
     <use style="fill:#ff7f0e;stroke:#ff7f0e;" x="308.204746" xlink:href="#m99f2606765" y="159.509349"/>
     <use style="fill:#ff7f0e;stroke:#ff7f0e;" x="313.549755" xlink:href="#m99f2606765" y="156.905987"/>
     <use style="fill:#ff7f0e;stroke:#ff7f0e;" x="316.843127" xlink:href="#m99f2606765" y="156.815503"/>
     <use style="fill:#ff7f0e;stroke:#ff7f0e;" x="320.760103" xlink:href="#m99f2606765" y="145.468703"/>
     <use style="fill:#ff7f0e;stroke:#ff7f0e;" x="323.218945" xlink:href="#m99f2606765" y="151.083701"/>
     <use style="fill:#ff7f0e;stroke:#ff7f0e;" x="328.415002" xlink:href="#m99f2606765" y="144.46789"/>
     <use style="fill:#ff7f0e;stroke:#ff7f0e;" x="331.334967" xlink:href="#m99f2606765" y="145.124061"/>
     <use style="fill:#ff7f0e;stroke:#ff7f0e;" x="335.818718" xlink:href="#m99f2606765" y="137.323119"/>
     <use style="fill:#ff7f0e;stroke:#ff7f0e;" x="337.570382" xlink:href="#m99f2606765" y="141.605933"/>
     <use style="fill:#ff7f0e;stroke:#ff7f0e;" x="339.987472" xlink:href="#m99f2606765" y="138.951758"/>
     <use style="fill:#ff7f0e;stroke:#ff7f0e;" x="342.16542" xlink:href="#m99f2606765" y="143.989406"/>
     <use style="fill:#ff7f0e;stroke:#ff7f0e;" x="351.14385" xlink:href="#m99f2606765" y="126.823292"/>
     <use style="fill:#ff7f0e;stroke:#ff7f0e;" x="352.834059" xlink:href="#m99f2606765" y="132.252314"/>
     <use style="fill:#ff7f0e;stroke:#ff7f0e;" x="358.135917" xlink:href="#m99f2606765" y="125.496612"/>
     <use style="fill:#ff7f0e;stroke:#ff7f0e;" x="361.49455" xlink:href="#m99f2606765" y="126.771087"/>
     <use style="fill:#ff7f0e;stroke:#ff7f0e;" x="368.332124" xlink:href="#m99f2606765" y="116.791024"/>
     <use style="fill:#ff7f0e;stroke:#ff7f0e;" x="369.446377" xlink:href="#m99f2606765" y="119.61085"/>
     <use style="fill:#ff7f0e;stroke:#ff7f0e;" x="377.037202" xlink:href="#m99f2606765" y="111.013505"/>
     <use style="fill:#ff7f0e;stroke:#ff7f0e;" x="380.430192" xlink:href="#m99f2606765" y="105.064454"/>
     <use style="fill:#ff7f0e;stroke:#ff7f0e;" x="383.186351" xlink:href="#m99f2606765" y="107.882047"/>
     <use style="fill:#ff7f0e;stroke:#ff7f0e;" x="386.037702" xlink:href="#m99f2606765" y="103.773392"/>
     <use style="fill:#ff7f0e;stroke:#ff7f0e;" x="390.399537" xlink:href="#m99f2606765" y="99.331138"/>
     <use style="fill:#ff7f0e;stroke:#ff7f0e;" x="394.351866" xlink:href="#m99f2606765" y="99.949915"/>
    </g>
   </g>
   <g id="PathCollection_3">
    <defs>
     <path d="M 0 3 
C 0.795609 3 1.55874 2.683901 2.12132 2.12132 
C 2.683901 1.55874 3 0.795609 3 0 
C 3 -0.795609 2.683901 -1.55874 2.12132 -2.12132 
C 1.55874 -2.683901 0.795609 -3 0 -3 
C -0.795609 -3 -1.55874 -2.683901 -2.12132 -2.12132 
C -2.683901 -1.55874 -3 -0.795609 -3 0 
C -3 0.795609 -2.683901 1.55874 -2.12132 2.12132 
C -1.55874 2.683901 -0.795609 3 0 3 
z
" id="m1abcb42387" style="stroke:#2ca02c;"/>
    </defs>
    <g clip-path="url(#pfdde547e7e)">
     <use style="fill:#2ca02c;stroke:#2ca02c;" x="73.832727" xlink:href="#m1abcb42387" y="275.734453"/>
     <use style="fill:#2ca02c;stroke:#2ca02c;" x="75.504364" xlink:href="#m1abcb42387" y="295.488"/>
     <use style="fill:#2ca02c;stroke:#2ca02c;" x="83.340838" xlink:href="#m1abcb42387" y="295.488"/>
     <use style="fill:#2ca02c;stroke:#2ca02c;" x="87.821891" xlink:href="#m1abcb42387" y="295.488"/>
     <use style="fill:#2ca02c;stroke:#2ca02c;" x="91.740669" xlink:href="#m1abcb42387" y="295.488"/>
     <use style="fill:#2ca02c;stroke:#2ca02c;" x="92.665345" xlink:href="#m1abcb42387" y="295.488"/>
     <use style="fill:#2ca02c;stroke:#2ca02c;" x="98.272417" xlink:href="#m1abcb42387" y="295.488"/>
     <use style="fill:#2ca02c;stroke:#2ca02c;" x="103.0008" xlink:href="#m1abcb42387" y="294.335563"/>
     <use style="fill:#2ca02c;stroke:#2ca02c;" x="103.613231" xlink:href="#m1abcb42387" y="294.712572"/>
     <use style="fill:#2ca02c;stroke:#2ca02c;" x="108.918016" xlink:href="#m1abcb42387" y="293.965347"/>
     <use style="fill:#2ca02c;stroke:#2ca02c;" x="116.335325" xlink:href="#m1abcb42387" y="288.518335"/>
     <use style="fill:#2ca02c;stroke:#2ca02c;" x="116.858513" xlink:href="#m1abcb42387" y="290.58951"/>
     <use style="fill:#2ca02c;stroke:#2ca02c;" x="125.250459" xlink:href="#m1abcb42387" y="273.584786"/>
     <use style="fill:#2ca02c;stroke:#2ca02c;" x="125.694484" xlink:href="#m1abcb42387" y="273.584786"/>
     <use style="fill:#2ca02c;stroke:#2ca02c;" x="132.128077" xlink:href="#m1abcb42387" y="255.059856"/>
     <use style="fill:#2ca02c;stroke:#2ca02c;" x="134.475077" xlink:href="#m1abcb42387" y="249.779975"/>
     <use style="fill:#2ca02c;stroke:#2ca02c;" x="140.330071" xlink:href="#m1abcb42387" y="226.798611"/>
     <use style="fill:#2ca02c;stroke:#2ca02c;" x="142.094242" xlink:href="#m1abcb42387" y="227.065543"/>
     <use style="fill:#2ca02c;stroke:#2ca02c;" x="143.023956" xlink:href="#m1abcb42387" y="227.711935"/>
     <use style="fill:#2ca02c;stroke:#2ca02c;" x="148.184122" xlink:href="#m1abcb42387" y="206.105412"/>
     <use style="fill:#2ca02c;stroke:#2ca02c;" x="154.179382" xlink:href="#m1abcb42387" y="182.59282"/>
     <use style="fill:#2ca02c;stroke:#2ca02c;" x="157.205579" xlink:href="#m1abcb42387" y="167.012522"/>
     <use style="fill:#2ca02c;stroke:#2ca02c;" x="160.963193" xlink:href="#m1abcb42387" y="155.054178"/>
     <use style="fill:#2ca02c;stroke:#2ca02c;" x="167.488892" xlink:href="#m1abcb42387" y="113.337071"/>
     <use style="fill:#2ca02c;stroke:#2ca02c;" x="171.173841" xlink:href="#m1abcb42387" y="92.355311"/>
     <use style="fill:#2ca02c;stroke:#2ca02c;" x="172.393038" xlink:href="#m1abcb42387" y="86.549935"/>
    </g>
   </g>
   <g id="matplotlib.axis_1">
    <g id="xtick_1">
     <g id="line2d_1">
      <defs>
       <path d="M 0 0 
L 0 3.5 
" id="m47885b86f7" style="stroke:#000000;stroke-width:0.8;"/>
      </defs>
      <g>
       <use style="stroke:#000000;stroke-width:0.8;" x="112.267045" xlink:href="#m47885b86f7" y="307.584"/>
      </g>
     </g>
     <g id="text_1">
      <!-- 10 -->
      <defs>
       <path d="M 12.40625 8.296875 
L 28.515625 8.296875 
L 28.515625 63.921875 
L 10.984375 60.40625 
L 10.984375 69.390625 
L 28.421875 72.90625 
L 38.28125 72.90625 
L 38.28125 8.296875 
L 54.390625 8.296875 
L 54.390625 0 
L 12.40625 0 
z
" id="DejaVuSans-49"/>
       <path d="M 31.78125 66.40625 
Q 24.171875 66.40625 20.328125 58.90625 
Q 16.5 51.421875 16.5 36.375 
Q 16.5 21.390625 20.328125 13.890625 
Q 24.171875 6.390625 31.78125 6.390625 
Q 39.453125 6.390625 43.28125 13.890625 
Q 47.125 21.390625 47.125 36.375 
Q 47.125 51.421875 43.28125 58.90625 
Q 39.453125 66.40625 31.78125 66.40625 
z
M 31.78125 74.21875 
Q 44.046875 74.21875 50.515625 64.515625 
Q 56.984375 54.828125 56.984375 36.375 
Q 56.984375 17.96875 50.515625 8.265625 
Q 44.046875 -1.421875 31.78125 -1.421875 
Q 19.53125 -1.421875 13.0625 8.265625 
Q 6.59375 17.96875 6.59375 36.375 
Q 6.59375 54.828125 13.0625 64.515625 
Q 19.53125 74.21875 31.78125 74.21875 
z
" id="DejaVuSans-48"/>
      </defs>
      <g transform="translate(105.904545 322.182437)scale(0.1 -0.1)">
       <use xlink:href="#DejaVuSans-49"/>
       <use x="63.623047" xlink:href="#DejaVuSans-48"/>
      </g>
     </g>
    </g>
    <g id="xtick_2">
     <g id="line2d_2">
      <g>
       <use style="stroke:#000000;stroke-width:0.8;" x="177.744094" xlink:href="#m47885b86f7" y="307.584"/>
      </g>
     </g>
     <g id="text_2">
      <!-- 20 -->
      <defs>
       <path d="M 19.1875 8.296875 
L 53.609375 8.296875 
L 53.609375 0 
L 7.328125 0 
L 7.328125 8.296875 
Q 12.9375 14.109375 22.625 23.890625 
Q 32.328125 33.6875 34.8125 36.53125 
Q 39.546875 41.84375 41.421875 45.53125 
Q 43.3125 49.21875 43.3125 52.78125 
Q 43.3125 58.59375 39.234375 62.25 
Q 35.15625 65.921875 28.609375 65.921875 
Q 23.96875 65.921875 18.8125 64.3125 
Q 13.671875 62.703125 7.8125 59.421875 
L 7.8125 69.390625 
Q 13.765625 71.78125 18.9375 73 
Q 24.125 74.21875 28.421875 74.21875 
Q 39.75 74.21875 46.484375 68.546875 
Q 53.21875 62.890625 53.21875 53.421875 
Q 53.21875 48.921875 51.53125 44.890625 
Q 49.859375 40.875 45.40625 35.40625 
Q 44.1875 33.984375 37.640625 27.21875 
Q 31.109375 20.453125 19.1875 8.296875 
z
" id="DejaVuSans-50"/>
      </defs>
      <g transform="translate(171.381594 322.182437)scale(0.1 -0.1)">
       <use xlink:href="#DejaVuSans-50"/>
       <use x="63.623047" xlink:href="#DejaVuSans-48"/>
      </g>
     </g>
    </g>
    <g id="xtick_3">
     <g id="line2d_3">
      <g>
       <use style="stroke:#000000;stroke-width:0.8;" x="243.221143" xlink:href="#m47885b86f7" y="307.584"/>
      </g>
     </g>
     <g id="text_3">
      <!-- 30 -->
      <defs>
       <path d="M 40.578125 39.3125 
Q 47.65625 37.796875 51.625 33 
Q 55.609375 28.21875 55.609375 21.1875 
Q 55.609375 10.40625 48.1875 4.484375 
Q 40.765625 -1.421875 27.09375 -1.421875 
Q 22.515625 -1.421875 17.65625 -0.515625 
Q 12.796875 0.390625 7.625 2.203125 
L 7.625 11.71875 
Q 11.71875 9.328125 16.59375 8.109375 
Q 21.484375 6.890625 26.8125 6.890625 
Q 36.078125 6.890625 40.9375 10.546875 
Q 45.796875 14.203125 45.796875 21.1875 
Q 45.796875 27.640625 41.28125 31.265625 
Q 36.765625 34.90625 28.71875 34.90625 
L 20.21875 34.90625 
L 20.21875 43.015625 
L 29.109375 43.015625 
Q 36.375 43.015625 40.234375 45.921875 
Q 44.09375 48.828125 44.09375 54.296875 
Q 44.09375 59.90625 40.109375 62.90625 
Q 36.140625 65.921875 28.71875 65.921875 
Q 24.65625 65.921875 20.015625 65.03125 
Q 15.375 64.15625 9.8125 62.3125 
L 9.8125 71.09375 
Q 15.4375 72.65625 20.34375 73.4375 
Q 25.25 74.21875 29.59375 74.21875 
Q 40.828125 74.21875 47.359375 69.109375 
Q 53.90625 64.015625 53.90625 55.328125 
Q 53.90625 49.265625 50.4375 45.09375 
Q 46.96875 40.921875 40.578125 39.3125 
z
" id="DejaVuSans-51"/>
      </defs>
      <g transform="translate(236.858643 322.182437)scale(0.1 -0.1)">
       <use xlink:href="#DejaVuSans-51"/>
       <use x="63.623047" xlink:href="#DejaVuSans-48"/>
      </g>
     </g>
    </g>
    <g id="xtick_4">
     <g id="line2d_4">
      <g>
       <use style="stroke:#000000;stroke-width:0.8;" x="308.698193" xlink:href="#m47885b86f7" y="307.584"/>
      </g>
     </g>
     <g id="text_4">
      <!-- 40 -->
      <defs>
       <path d="M 37.796875 64.3125 
L 12.890625 25.390625 
L 37.796875 25.390625 
z
M 35.203125 72.90625 
L 47.609375 72.90625 
L 47.609375 25.390625 
L 58.015625 25.390625 
L 58.015625 17.1875 
L 47.609375 17.1875 
L 47.609375 0 
L 37.796875 0 
L 37.796875 17.1875 
L 4.890625 17.1875 
L 4.890625 26.703125 
z
" id="DejaVuSans-52"/>
      </defs>
      <g transform="translate(302.335693 322.182437)scale(0.1 -0.1)">
       <use xlink:href="#DejaVuSans-52"/>
       <use x="63.623047" xlink:href="#DejaVuSans-48"/>
      </g>
     </g>
    </g>
    <g id="xtick_5">
     <g id="line2d_5">
      <g>
       <use style="stroke:#000000;stroke-width:0.8;" x="374.175242" xlink:href="#m47885b86f7" y="307.584"/>
      </g>
     </g>
     <g id="text_5">
      <!-- 50 -->
      <defs>
       <path d="M 10.796875 72.90625 
L 49.515625 72.90625 
L 49.515625 64.59375 
L 19.828125 64.59375 
L 19.828125 46.734375 
Q 21.96875 47.46875 24.109375 47.828125 
Q 26.265625 48.1875 28.421875 48.1875 
Q 40.625 48.1875 47.75 41.5 
Q 54.890625 34.8125 54.890625 23.390625 
Q 54.890625 11.625 47.5625 5.09375 
Q 40.234375 -1.421875 26.90625 -1.421875 
Q 22.3125 -1.421875 17.546875 -0.640625 
Q 12.796875 0.140625 7.71875 1.703125 
L 7.71875 11.625 
Q 12.109375 9.234375 16.796875 8.0625 
Q 21.484375 6.890625 26.703125 6.890625 
Q 35.15625 6.890625 40.078125 11.328125 
Q 45.015625 15.765625 45.015625 23.390625 
Q 45.015625 31 40.078125 35.4375 
Q 35.15625 39.890625 26.703125 39.890625 
Q 22.75 39.890625 18.8125 39.015625 
Q 14.890625 38.140625 10.796875 36.28125 
z
" id="DejaVuSans-53"/>
      </defs>
      <g transform="translate(367.812742 322.182437)scale(0.1 -0.1)">
       <use xlink:href="#DejaVuSans-53"/>
       <use x="63.623047" xlink:href="#DejaVuSans-48"/>
      </g>
     </g>
    </g>
    <g id="text_6">
     <!-- Length of number (log(number)) -->
     <defs>
      <path d="M 9.8125 72.90625 
L 19.671875 72.90625 
L 19.671875 8.296875 
L 55.171875 8.296875 
L 55.171875 0 
L 9.8125 0 
z
" id="DejaVuSans-76"/>
      <path d="M 56.203125 29.59375 
L 56.203125 25.203125 
L 14.890625 25.203125 
Q 15.484375 15.921875 20.484375 11.0625 
Q 25.484375 6.203125 34.421875 6.203125 
Q 39.59375 6.203125 44.453125 7.46875 
Q 49.3125 8.734375 54.109375 11.28125 
L 54.109375 2.78125 
Q 49.265625 0.734375 44.1875 -0.34375 
Q 39.109375 -1.421875 33.890625 -1.421875 
Q 20.796875 -1.421875 13.15625 6.1875 
Q 5.515625 13.8125 5.515625 26.8125 
Q 5.515625 40.234375 12.765625 48.109375 
Q 20.015625 56 32.328125 56 
Q 43.359375 56 49.78125 48.890625 
Q 56.203125 41.796875 56.203125 29.59375 
z
M 47.21875 32.234375 
Q 47.125 39.59375 43.09375 43.984375 
Q 39.0625 48.390625 32.421875 48.390625 
Q 24.90625 48.390625 20.390625 44.140625 
Q 15.875 39.890625 15.1875 32.171875 
z
" id="DejaVuSans-101"/>
      <path d="M 54.890625 33.015625 
L 54.890625 0 
L 45.90625 0 
L 45.90625 32.71875 
Q 45.90625 40.484375 42.875 44.328125 
Q 39.84375 48.1875 33.796875 48.1875 
Q 26.515625 48.1875 22.3125 43.546875 
Q 18.109375 38.921875 18.109375 30.90625 
L 18.109375 0 
L 9.078125 0 
L 9.078125 54.6875 
L 18.109375 54.6875 
L 18.109375 46.1875 
Q 21.34375 51.125 25.703125 53.5625 
Q 30.078125 56 35.796875 56 
Q 45.21875 56 50.046875 50.171875 
Q 54.890625 44.34375 54.890625 33.015625 
z
" id="DejaVuSans-110"/>
      <path d="M 45.40625 27.984375 
Q 45.40625 37.75 41.375 43.109375 
Q 37.359375 48.484375 30.078125 48.484375 
Q 22.859375 48.484375 18.828125 43.109375 
Q 14.796875 37.75 14.796875 27.984375 
Q 14.796875 18.265625 18.828125 12.890625 
Q 22.859375 7.515625 30.078125 7.515625 
Q 37.359375 7.515625 41.375 12.890625 
Q 45.40625 18.265625 45.40625 27.984375 
z
M 54.390625 6.78125 
Q 54.390625 -7.171875 48.1875 -13.984375 
Q 42 -20.796875 29.203125 -20.796875 
Q 24.46875 -20.796875 20.265625 -20.09375 
Q 16.0625 -19.390625 12.109375 -17.921875 
L 12.109375 -9.1875 
Q 16.0625 -11.328125 19.921875 -12.34375 
Q 23.78125 -13.375 27.78125 -13.375 
Q 36.625 -13.375 41.015625 -8.765625 
Q 45.40625 -4.15625 45.40625 5.171875 
L 45.40625 9.625 
Q 42.625 4.78125 38.28125 2.390625 
Q 33.9375 0 27.875 0 
Q 17.828125 0 11.671875 7.65625 
Q 5.515625 15.328125 5.515625 27.984375 
Q 5.515625 40.671875 11.671875 48.328125 
Q 17.828125 56 27.875 56 
Q 33.9375 56 38.28125 53.609375 
Q 42.625 51.21875 45.40625 46.390625 
L 45.40625 54.6875 
L 54.390625 54.6875 
z
" id="DejaVuSans-103"/>
      <path d="M 18.3125 70.21875 
L 18.3125 54.6875 
L 36.8125 54.6875 
L 36.8125 47.703125 
L 18.3125 47.703125 
L 18.3125 18.015625 
Q 18.3125 11.328125 20.140625 9.421875 
Q 21.96875 7.515625 27.59375 7.515625 
L 36.8125 7.515625 
L 36.8125 0 
L 27.59375 0 
Q 17.1875 0 13.234375 3.875 
Q 9.28125 7.765625 9.28125 18.015625 
L 9.28125 47.703125 
L 2.6875 47.703125 
L 2.6875 54.6875 
L 9.28125 54.6875 
L 9.28125 70.21875 
z
" id="DejaVuSans-116"/>
      <path d="M 54.890625 33.015625 
L 54.890625 0 
L 45.90625 0 
L 45.90625 32.71875 
Q 45.90625 40.484375 42.875 44.328125 
Q 39.84375 48.1875 33.796875 48.1875 
Q 26.515625 48.1875 22.3125 43.546875 
Q 18.109375 38.921875 18.109375 30.90625 
L 18.109375 0 
L 9.078125 0 
L 9.078125 75.984375 
L 18.109375 75.984375 
L 18.109375 46.1875 
Q 21.34375 51.125 25.703125 53.5625 
Q 30.078125 56 35.796875 56 
Q 45.21875 56 50.046875 50.171875 
Q 54.890625 44.34375 54.890625 33.015625 
z
" id="DejaVuSans-104"/>
      <path id="DejaVuSans-32"/>
      <path d="M 30.609375 48.390625 
Q 23.390625 48.390625 19.1875 42.75 
Q 14.984375 37.109375 14.984375 27.296875 
Q 14.984375 17.484375 19.15625 11.84375 
Q 23.34375 6.203125 30.609375 6.203125 
Q 37.796875 6.203125 41.984375 11.859375 
Q 46.1875 17.53125 46.1875 27.296875 
Q 46.1875 37.015625 41.984375 42.703125 
Q 37.796875 48.390625 30.609375 48.390625 
z
M 30.609375 56 
Q 42.328125 56 49.015625 48.375 
Q 55.71875 40.765625 55.71875 27.296875 
Q 55.71875 13.875 49.015625 6.21875 
Q 42.328125 -1.421875 30.609375 -1.421875 
Q 18.84375 -1.421875 12.171875 6.21875 
Q 5.515625 13.875 5.515625 27.296875 
Q 5.515625 40.765625 12.171875 48.375 
Q 18.84375 56 30.609375 56 
z
" id="DejaVuSans-111"/>
      <path d="M 37.109375 75.984375 
L 37.109375 68.5 
L 28.515625 68.5 
Q 23.6875 68.5 21.796875 66.546875 
Q 19.921875 64.59375 19.921875 59.515625 
L 19.921875 54.6875 
L 34.71875 54.6875 
L 34.71875 47.703125 
L 19.921875 47.703125 
L 19.921875 0 
L 10.890625 0 
L 10.890625 47.703125 
L 2.296875 47.703125 
L 2.296875 54.6875 
L 10.890625 54.6875 
L 10.890625 58.5 
Q 10.890625 67.625 15.140625 71.796875 
Q 19.390625 75.984375 28.609375 75.984375 
z
" id="DejaVuSans-102"/>
      <path d="M 8.5 21.578125 
L 8.5 54.6875 
L 17.484375 54.6875 
L 17.484375 21.921875 
Q 17.484375 14.15625 20.5 10.265625 
Q 23.53125 6.390625 29.59375 6.390625 
Q 36.859375 6.390625 41.078125 11.03125 
Q 45.3125 15.671875 45.3125 23.6875 
L 45.3125 54.6875 
L 54.296875 54.6875 
L 54.296875 0 
L 45.3125 0 
L 45.3125 8.40625 
Q 42.046875 3.421875 37.71875 1 
Q 33.40625 -1.421875 27.6875 -1.421875 
Q 18.265625 -1.421875 13.375 4.4375 
Q 8.5 10.296875 8.5 21.578125 
z
M 31.109375 56 
z
" id="DejaVuSans-117"/>
      <path d="M 52 44.1875 
Q 55.375 50.25 60.0625 53.125 
Q 64.75 56 71.09375 56 
Q 79.640625 56 84.28125 50.015625 
Q 88.921875 44.046875 88.921875 33.015625 
L 88.921875 0 
L 79.890625 0 
L 79.890625 32.71875 
Q 79.890625 40.578125 77.09375 44.375 
Q 74.3125 48.1875 68.609375 48.1875 
Q 61.625 48.1875 57.5625 43.546875 
Q 53.515625 38.921875 53.515625 30.90625 
L 53.515625 0 
L 44.484375 0 
L 44.484375 32.71875 
Q 44.484375 40.625 41.703125 44.40625 
Q 38.921875 48.1875 33.109375 48.1875 
Q 26.21875 48.1875 22.15625 43.53125 
Q 18.109375 38.875 18.109375 30.90625 
L 18.109375 0 
L 9.078125 0 
L 9.078125 54.6875 
L 18.109375 54.6875 
L 18.109375 46.1875 
Q 21.1875 51.21875 25.484375 53.609375 
Q 29.78125 56 35.6875 56 
Q 41.65625 56 45.828125 52.96875 
Q 50 49.953125 52 44.1875 
z
" id="DejaVuSans-109"/>
      <path d="M 48.6875 27.296875 
Q 48.6875 37.203125 44.609375 42.84375 
Q 40.53125 48.484375 33.40625 48.484375 
Q 26.265625 48.484375 22.1875 42.84375 
Q 18.109375 37.203125 18.109375 27.296875 
Q 18.109375 17.390625 22.1875 11.75 
Q 26.265625 6.109375 33.40625 6.109375 
Q 40.53125 6.109375 44.609375 11.75 
Q 48.6875 17.390625 48.6875 27.296875 
z
M 18.109375 46.390625 
Q 20.953125 51.265625 25.265625 53.625 
Q 29.59375 56 35.59375 56 
Q 45.5625 56 51.78125 48.09375 
Q 58.015625 40.1875 58.015625 27.296875 
Q 58.015625 14.40625 51.78125 6.484375 
Q 45.5625 -1.421875 35.59375 -1.421875 
Q 29.59375 -1.421875 25.265625 0.953125 
Q 20.953125 3.328125 18.109375 8.203125 
L 18.109375 0 
L 9.078125 0 
L 9.078125 75.984375 
L 18.109375 75.984375 
z
" id="DejaVuSans-98"/>
      <path d="M 41.109375 46.296875 
Q 39.59375 47.171875 37.8125 47.578125 
Q 36.03125 48 33.890625 48 
Q 26.265625 48 22.1875 43.046875 
Q 18.109375 38.09375 18.109375 28.8125 
L 18.109375 0 
L 9.078125 0 
L 9.078125 54.6875 
L 18.109375 54.6875 
L 18.109375 46.1875 
Q 20.953125 51.171875 25.484375 53.578125 
Q 30.03125 56 36.53125 56 
Q 37.453125 56 38.578125 55.875 
Q 39.703125 55.765625 41.0625 55.515625 
z
" id="DejaVuSans-114"/>
      <path d="M 31 75.875 
Q 24.46875 64.65625 21.28125 53.65625 
Q 18.109375 42.671875 18.109375 31.390625 
Q 18.109375 20.125 21.3125 9.0625 
Q 24.515625 -2 31 -13.1875 
L 23.1875 -13.1875 
Q 15.875 -1.703125 12.234375 9.375 
Q 8.59375 20.453125 8.59375 31.390625 
Q 8.59375 42.28125 12.203125 53.3125 
Q 15.828125 64.359375 23.1875 75.875 
z
" id="DejaVuSans-40"/>
      <path d="M 9.421875 75.984375 
L 18.40625 75.984375 
L 18.40625 0 
L 9.421875 0 
z
" id="DejaVuSans-108"/>
      <path d="M 8.015625 75.875 
L 15.828125 75.875 
Q 23.140625 64.359375 26.78125 53.3125 
Q 30.421875 42.28125 30.421875 31.390625 
Q 30.421875 20.453125 26.78125 9.375 
Q 23.140625 -1.703125 15.828125 -13.1875 
L 8.015625 -13.1875 
Q 14.5 -2 17.703125 9.0625 
Q 20.90625 20.125 20.90625 31.390625 
Q 20.90625 42.671875 17.703125 53.65625 
Q 14.5 64.65625 8.015625 75.875 
z
" id="DejaVuSans-41"/>
     </defs>
     <g transform="translate(154.8725 335.860562)scale(0.1 -0.1)">
      <use xlink:href="#DejaVuSans-76"/>
      <use x="53.962891" xlink:href="#DejaVuSans-101"/>
      <use x="115.486328" xlink:href="#DejaVuSans-110"/>
      <use x="178.865234" xlink:href="#DejaVuSans-103"/>
      <use x="242.341797" xlink:href="#DejaVuSans-116"/>
      <use x="281.550781" xlink:href="#DejaVuSans-104"/>
      <use x="344.929688" xlink:href="#DejaVuSans-32"/>
      <use x="376.716797" xlink:href="#DejaVuSans-111"/>
      <use x="437.898438" xlink:href="#DejaVuSans-102"/>
      <use x="473.103516" xlink:href="#DejaVuSans-32"/>
      <use x="504.890625" xlink:href="#DejaVuSans-110"/>
      <use x="568.269531" xlink:href="#DejaVuSans-117"/>
      <use x="631.648438" xlink:href="#DejaVuSans-109"/>
      <use x="729.060547" xlink:href="#DejaVuSans-98"/>
      <use x="792.537109" xlink:href="#DejaVuSans-101"/>
      <use x="854.060547" xlink:href="#DejaVuSans-114"/>
      <use x="895.173828" xlink:href="#DejaVuSans-32"/>
      <use x="926.960938" xlink:href="#DejaVuSans-40"/>
      <use x="965.974609" xlink:href="#DejaVuSans-108"/>
      <use x="993.757812" xlink:href="#DejaVuSans-111"/>
      <use x="1054.939453" xlink:href="#DejaVuSans-103"/>
      <use x="1118.416016" xlink:href="#DejaVuSans-40"/>
      <use x="1157.429688" xlink:href="#DejaVuSans-110"/>
      <use x="1220.808594" xlink:href="#DejaVuSans-117"/>
      <use x="1284.1875" xlink:href="#DejaVuSans-109"/>
      <use x="1381.599609" xlink:href="#DejaVuSans-98"/>
      <use x="1445.076172" xlink:href="#DejaVuSans-101"/>
      <use x="1506.599609" xlink:href="#DejaVuSans-114"/>
      <use x="1547.712891" xlink:href="#DejaVuSans-41"/>
      <use x="1586.726562" xlink:href="#DejaVuSans-41"/>
     </g>
    </g>
   </g>
   <g id="matplotlib.axis_2">
    <g id="ytick_1">
     <g id="line2d_6">
      <defs>
       <path d="M 0 0 
L -3.5 0 
" id="m95e8a5bcd2" style="stroke:#000000;stroke-width:0.8;"/>
      </defs>
      <g>
       <use style="stroke:#000000;stroke-width:0.8;" x="57.6" xlink:href="#m95e8a5bcd2" y="275.835123"/>
      </g>
     </g>
     <g id="text_7">
      <!-- −2 -->
      <defs>
       <path d="M 10.59375 35.5 
L 73.1875 35.5 
L 73.1875 27.203125 
L 10.59375 27.203125 
z
" id="DejaVuSans-8722"/>
      </defs>
      <g transform="translate(35.857813 279.634341)scale(0.1 -0.1)">
       <use xlink:href="#DejaVuSans-8722"/>
       <use x="83.789062" xlink:href="#DejaVuSans-50"/>
      </g>
     </g>
    </g>
    <g id="ytick_2">
     <g id="line2d_7">
      <g>
       <use style="stroke:#000000;stroke-width:0.8;" x="57.6" xlink:href="#m95e8a5bcd2" y="234.742305"/>
      </g>
     </g>
     <g id="text_8">
      <!-- 0 -->
      <g transform="translate(44.2375 238.541524)scale(0.1 -0.1)">
       <use xlink:href="#DejaVuSans-48"/>
      </g>
     </g>
    </g>
    <g id="ytick_3">
     <g id="line2d_8">
      <g>
       <use style="stroke:#000000;stroke-width:0.8;" x="57.6" xlink:href="#m95e8a5bcd2" y="193.649488"/>
      </g>
     </g>
     <g id="text_9">
      <!-- 2 -->
      <g transform="translate(44.2375 197.448707)scale(0.1 -0.1)">
       <use xlink:href="#DejaVuSans-50"/>
      </g>
     </g>
    </g>
    <g id="ytick_4">
     <g id="line2d_9">
      <g>
       <use style="stroke:#000000;stroke-width:0.8;" x="57.6" xlink:href="#m95e8a5bcd2" y="152.556671"/>
      </g>
     </g>
     <g id="text_10">
      <!-- 4 -->
      <g transform="translate(44.2375 156.355889)scale(0.1 -0.1)">
       <use xlink:href="#DejaVuSans-52"/>
      </g>
     </g>
    </g>
    <g id="ytick_5">
     <g id="line2d_10">
      <g>
       <use style="stroke:#000000;stroke-width:0.8;" x="57.6" xlink:href="#m95e8a5bcd2" y="111.463853"/>
      </g>
     </g>
     <g id="text_11">
      <!-- 6 -->
      <defs>
       <path d="M 33.015625 40.375 
Q 26.375 40.375 22.484375 35.828125 
Q 18.609375 31.296875 18.609375 23.390625 
Q 18.609375 15.53125 22.484375 10.953125 
Q 26.375 6.390625 33.015625 6.390625 
Q 39.65625 6.390625 43.53125 10.953125 
Q 47.40625 15.53125 47.40625 23.390625 
Q 47.40625 31.296875 43.53125 35.828125 
Q 39.65625 40.375 33.015625 40.375 
z
M 52.59375 71.296875 
L 52.59375 62.3125 
Q 48.875 64.0625 45.09375 64.984375 
Q 41.3125 65.921875 37.59375 65.921875 
Q 27.828125 65.921875 22.671875 59.328125 
Q 17.53125 52.734375 16.796875 39.40625 
Q 19.671875 43.65625 24.015625 45.921875 
Q 28.375 48.1875 33.59375 48.1875 
Q 44.578125 48.1875 50.953125 41.515625 
Q 57.328125 34.859375 57.328125 23.390625 
Q 57.328125 12.15625 50.6875 5.359375 
Q 44.046875 -1.421875 33.015625 -1.421875 
Q 20.359375 -1.421875 13.671875 8.265625 
Q 6.984375 17.96875 6.984375 36.375 
Q 6.984375 53.65625 15.1875 63.9375 
Q 23.390625 74.21875 37.203125 74.21875 
Q 40.921875 74.21875 44.703125 73.484375 
Q 48.484375 72.75 52.59375 71.296875 
z
" id="DejaVuSans-54"/>
      </defs>
      <g transform="translate(44.2375 115.263072)scale(0.1 -0.1)">
       <use xlink:href="#DejaVuSans-54"/>
      </g>
     </g>
    </g>
    <g id="ytick_6">
     <g id="line2d_11">
      <g>
       <use style="stroke:#000000;stroke-width:0.8;" x="57.6" xlink:href="#m95e8a5bcd2" y="70.371036"/>
      </g>
     </g>
     <g id="text_12">
      <!-- 8 -->
      <defs>
       <path d="M 31.78125 34.625 
Q 24.75 34.625 20.71875 30.859375 
Q 16.703125 27.09375 16.703125 20.515625 
Q 16.703125 13.921875 20.71875 10.15625 
Q 24.75 6.390625 31.78125 6.390625 
Q 38.8125 6.390625 42.859375 10.171875 
Q 46.921875 13.96875 46.921875 20.515625 
Q 46.921875 27.09375 42.890625 30.859375 
Q 38.875 34.625 31.78125 34.625 
z
M 21.921875 38.8125 
Q 15.578125 40.375 12.03125 44.71875 
Q 8.5 49.078125 8.5 55.328125 
Q 8.5 64.0625 14.71875 69.140625 
Q 20.953125 74.21875 31.78125 74.21875 
Q 42.671875 74.21875 48.875 69.140625 
Q 55.078125 64.0625 55.078125 55.328125 
Q 55.078125 49.078125 51.53125 44.71875 
Q 48 40.375 41.703125 38.8125 
Q 48.828125 37.15625 52.796875 32.3125 
Q 56.78125 27.484375 56.78125 20.515625 
Q 56.78125 9.90625 50.3125 4.234375 
Q 43.84375 -1.421875 31.78125 -1.421875 
Q 19.734375 -1.421875 13.25 4.234375 
Q 6.78125 9.90625 6.78125 20.515625 
Q 6.78125 27.484375 10.78125 32.3125 
Q 14.796875 37.15625 21.921875 38.8125 
z
M 18.3125 54.390625 
Q 18.3125 48.734375 21.84375 45.5625 
Q 25.390625 42.390625 31.78125 42.390625 
Q 38.140625 42.390625 41.71875 45.5625 
Q 45.3125 48.734375 45.3125 54.390625 
Q 45.3125 60.0625 41.71875 63.234375 
Q 38.140625 66.40625 31.78125 66.40625 
Q 25.390625 66.40625 21.84375 63.234375 
Q 18.3125 60.0625 18.3125 54.390625 
z
" id="DejaVuSans-56"/>
      </defs>
      <g transform="translate(44.2375 74.170255)scale(0.1 -0.1)">
       <use xlink:href="#DejaVuSans-56"/>
      </g>
     </g>
    </g>
    <g id="text_13">
     <!-- Time taken (log(seconds)) -->
     <defs>
      <path d="M -0.296875 72.90625 
L 61.375 72.90625 
L 61.375 64.59375 
L 35.5 64.59375 
L 35.5 0 
L 25.59375 0 
L 25.59375 64.59375 
L -0.296875 64.59375 
z
" id="DejaVuSans-84"/>
      <path d="M 9.421875 54.6875 
L 18.40625 54.6875 
L 18.40625 0 
L 9.421875 0 
z
M 9.421875 75.984375 
L 18.40625 75.984375 
L 18.40625 64.59375 
L 9.421875 64.59375 
z
" id="DejaVuSans-105"/>
      <path d="M 34.28125 27.484375 
Q 23.390625 27.484375 19.1875 25 
Q 14.984375 22.515625 14.984375 16.5 
Q 14.984375 11.71875 18.140625 8.90625 
Q 21.296875 6.109375 26.703125 6.109375 
Q 34.1875 6.109375 38.703125 11.40625 
Q 43.21875 16.703125 43.21875 25.484375 
L 43.21875 27.484375 
z
M 52.203125 31.203125 
L 52.203125 0 
L 43.21875 0 
L 43.21875 8.296875 
Q 40.140625 3.328125 35.546875 0.953125 
Q 30.953125 -1.421875 24.3125 -1.421875 
Q 15.921875 -1.421875 10.953125 3.296875 
Q 6 8.015625 6 15.921875 
Q 6 25.140625 12.171875 29.828125 
Q 18.359375 34.515625 30.609375 34.515625 
L 43.21875 34.515625 
L 43.21875 35.40625 
Q 43.21875 41.609375 39.140625 45 
Q 35.0625 48.390625 27.6875 48.390625 
Q 23 48.390625 18.546875 47.265625 
Q 14.109375 46.140625 10.015625 43.890625 
L 10.015625 52.203125 
Q 14.9375 54.109375 19.578125 55.046875 
Q 24.21875 56 28.609375 56 
Q 40.484375 56 46.34375 49.84375 
Q 52.203125 43.703125 52.203125 31.203125 
z
" id="DejaVuSans-97"/>
      <path d="M 9.078125 75.984375 
L 18.109375 75.984375 
L 18.109375 31.109375 
L 44.921875 54.6875 
L 56.390625 54.6875 
L 27.390625 29.109375 
L 57.625 0 
L 45.90625 0 
L 18.109375 26.703125 
L 18.109375 0 
L 9.078125 0 
z
" id="DejaVuSans-107"/>
      <path d="M 44.28125 53.078125 
L 44.28125 44.578125 
Q 40.484375 46.53125 36.375 47.5 
Q 32.28125 48.484375 27.875 48.484375 
Q 21.1875 48.484375 17.84375 46.4375 
Q 14.5 44.390625 14.5 40.28125 
Q 14.5 37.15625 16.890625 35.375 
Q 19.28125 33.59375 26.515625 31.984375 
L 29.59375 31.296875 
Q 39.15625 29.25 43.1875 25.515625 
Q 47.21875 21.78125 47.21875 15.09375 
Q 47.21875 7.46875 41.1875 3.015625 
Q 35.15625 -1.421875 24.609375 -1.421875 
Q 20.21875 -1.421875 15.453125 -0.5625 
Q 10.6875 0.296875 5.421875 2 
L 5.421875 11.28125 
Q 10.40625 8.6875 15.234375 7.390625 
Q 20.0625 6.109375 24.8125 6.109375 
Q 31.15625 6.109375 34.5625 8.28125 
Q 37.984375 10.453125 37.984375 14.40625 
Q 37.984375 18.0625 35.515625 20.015625 
Q 33.0625 21.96875 24.703125 23.78125 
L 21.578125 24.515625 
Q 13.234375 26.265625 9.515625 29.90625 
Q 5.8125 33.546875 5.8125 39.890625 
Q 5.8125 47.609375 11.28125 51.796875 
Q 16.75 56 26.8125 56 
Q 31.78125 56 36.171875 55.265625 
Q 40.578125 54.546875 44.28125 53.078125 
z
" id="DejaVuSans-115"/>
      <path d="M 48.78125 52.59375 
L 48.78125 44.1875 
Q 44.96875 46.296875 41.140625 47.34375 
Q 37.3125 48.390625 33.40625 48.390625 
Q 24.65625 48.390625 19.8125 42.84375 
Q 14.984375 37.3125 14.984375 27.296875 
Q 14.984375 17.28125 19.8125 11.734375 
Q 24.65625 6.203125 33.40625 6.203125 
Q 37.3125 6.203125 41.140625 7.25 
Q 44.96875 8.296875 48.78125 10.40625 
L 48.78125 2.09375 
Q 45.015625 0.34375 40.984375 -0.53125 
Q 36.96875 -1.421875 32.421875 -1.421875 
Q 20.0625 -1.421875 12.78125 6.34375 
Q 5.515625 14.109375 5.515625 27.296875 
Q 5.515625 40.671875 12.859375 48.328125 
Q 20.21875 56 33.015625 56 
Q 37.15625 56 41.109375 55.140625 
Q 45.0625 54.296875 48.78125 52.59375 
z
" id="DejaVuSans-99"/>
      <path d="M 45.40625 46.390625 
L 45.40625 75.984375 
L 54.390625 75.984375 
L 54.390625 0 
L 45.40625 0 
L 45.40625 8.203125 
Q 42.578125 3.328125 38.25 0.953125 
Q 33.9375 -1.421875 27.875 -1.421875 
Q 17.96875 -1.421875 11.734375 6.484375 
Q 5.515625 14.40625 5.515625 27.296875 
Q 5.515625 40.1875 11.734375 48.09375 
Q 17.96875 56 27.875 56 
Q 33.9375 56 38.25 53.625 
Q 42.578125 51.265625 45.40625 46.390625 
z
M 14.796875 27.296875 
Q 14.796875 17.390625 18.875 11.75 
Q 22.953125 6.109375 30.078125 6.109375 
Q 37.203125 6.109375 41.296875 11.75 
Q 45.40625 17.390625 45.40625 27.296875 
Q 45.40625 37.203125 41.296875 42.84375 
Q 37.203125 48.484375 30.078125 48.484375 
Q 22.953125 48.484375 18.875 42.84375 
Q 14.796875 37.203125 14.796875 27.296875 
z
" id="DejaVuSans-100"/>
     </defs>
     <g transform="translate(29.778125 239.786594)rotate(-90)scale(0.1 -0.1)">
      <use xlink:href="#DejaVuSans-84"/>
      <use x="57.958984" xlink:href="#DejaVuSans-105"/>
      <use x="85.742188" xlink:href="#DejaVuSans-109"/>
      <use x="183.154297" xlink:href="#DejaVuSans-101"/>
      <use x="244.677734" xlink:href="#DejaVuSans-32"/>
      <use x="276.464844" xlink:href="#DejaVuSans-116"/>
      <use x="315.673828" xlink:href="#DejaVuSans-97"/>
      <use x="376.953125" xlink:href="#DejaVuSans-107"/>
      <use x="431.238281" xlink:href="#DejaVuSans-101"/>
      <use x="492.761719" xlink:href="#DejaVuSans-110"/>
      <use x="556.140625" xlink:href="#DejaVuSans-32"/>
      <use x="587.927734" xlink:href="#DejaVuSans-40"/>
      <use x="626.941406" xlink:href="#DejaVuSans-108"/>
      <use x="654.724609" xlink:href="#DejaVuSans-111"/>
      <use x="715.90625" xlink:href="#DejaVuSans-103"/>
      <use x="779.382812" xlink:href="#DejaVuSans-40"/>
      <use x="818.396484" xlink:href="#DejaVuSans-115"/>
      <use x="870.496094" xlink:href="#DejaVuSans-101"/>
      <use x="932.019531" xlink:href="#DejaVuSans-99"/>
      <use x="987" xlink:href="#DejaVuSans-111"/>
      <use x="1048.181641" xlink:href="#DejaVuSans-110"/>
      <use x="1111.560547" xlink:href="#DejaVuSans-100"/>
      <use x="1175.037109" xlink:href="#DejaVuSans-115"/>
      <use x="1227.136719" xlink:href="#DejaVuSans-41"/>
      <use x="1266.150391" xlink:href="#DejaVuSans-41"/>
     </g>
    </g>
   </g>
   <g id="patch_3">
    <path d="M 57.6 307.584 
L 57.6 41.472 
" style="fill:none;stroke:#000000;stroke-linecap:square;stroke-linejoin:miter;stroke-width:0.8;"/>
   </g>
   <g id="patch_4">
    <path d="M 414.72 307.584 
L 414.72 41.472 
" style="fill:none;stroke:#000000;stroke-linecap:square;stroke-linejoin:miter;stroke-width:0.8;"/>
   </g>
   <g id="patch_5">
    <path d="M 57.6 307.584 
L 414.72 307.584 
" style="fill:none;stroke:#000000;stroke-linecap:square;stroke-linejoin:miter;stroke-width:0.8;"/>
   </g>
   <g id="patch_6">
    <path d="M 57.6 41.472 
L 414.72 41.472 
" style="fill:none;stroke:#000000;stroke-linecap:square;stroke-linejoin:miter;stroke-width:0.8;"/>
   </g>
   <g id="text_14">
    <!-- Speedtest -->
    <defs>
     <path d="M 53.515625 70.515625 
L 53.515625 60.890625 
Q 47.90625 63.578125 42.921875 64.890625 
Q 37.9375 66.21875 33.296875 66.21875 
Q 25.25 66.21875 20.875 63.09375 
Q 16.5 59.96875 16.5 54.203125 
Q 16.5 49.359375 19.40625 46.890625 
Q 22.3125 44.4375 30.421875 42.921875 
L 36.375 41.703125 
Q 47.40625 39.59375 52.65625 34.296875 
Q 57.90625 29 57.90625 20.125 
Q 57.90625 9.515625 50.796875 4.046875 
Q 43.703125 -1.421875 29.984375 -1.421875 
Q 24.8125 -1.421875 18.96875 -0.25 
Q 13.140625 0.921875 6.890625 3.21875 
L 6.890625 13.375 
Q 12.890625 10.015625 18.65625 8.296875 
Q 24.421875 6.59375 29.984375 6.59375 
Q 38.421875 6.59375 43.015625 9.90625 
Q 47.609375 13.234375 47.609375 19.390625 
Q 47.609375 24.75 44.3125 27.78125 
Q 41.015625 30.8125 33.5 32.328125 
L 27.484375 33.5 
Q 16.453125 35.6875 11.515625 40.375 
Q 6.59375 45.0625 6.59375 53.421875 
Q 6.59375 63.09375 13.40625 68.65625 
Q 20.21875 74.21875 32.171875 74.21875 
Q 37.3125 74.21875 42.625 73.28125 
Q 47.953125 72.359375 53.515625 70.515625 
z
" id="DejaVuSans-83"/>
     <path d="M 18.109375 8.203125 
L 18.109375 -20.796875 
L 9.078125 -20.796875 
L 9.078125 54.6875 
L 18.109375 54.6875 
L 18.109375 46.390625 
Q 20.953125 51.265625 25.265625 53.625 
Q 29.59375 56 35.59375 56 
Q 45.5625 56 51.78125 48.09375 
Q 58.015625 40.1875 58.015625 27.296875 
Q 58.015625 14.40625 51.78125 6.484375 
Q 45.5625 -1.421875 35.59375 -1.421875 
Q 29.59375 -1.421875 25.265625 0.953125 
Q 20.953125 3.328125 18.109375 8.203125 
z
M 48.6875 27.296875 
Q 48.6875 37.203125 44.609375 42.84375 
Q 40.53125 48.484375 33.40625 48.484375 
Q 26.265625 48.484375 22.1875 42.84375 
Q 18.109375 37.203125 18.109375 27.296875 
Q 18.109375 17.390625 22.1875 11.75 
Q 26.265625 6.109375 33.40625 6.109375 
Q 40.53125 6.109375 44.609375 11.75 
Q 48.6875 17.390625 48.6875 27.296875 
z
" id="DejaVuSans-112"/>
    </defs>
    <g transform="translate(205.827188 35.472)scale(0.12 -0.12)">
     <use xlink:href="#DejaVuSans-83"/>
     <use x="63.476562" xlink:href="#DejaVuSans-112"/>
     <use x="126.953125" xlink:href="#DejaVuSans-101"/>
     <use x="188.476562" xlink:href="#DejaVuSans-101"/>
     <use x="250" xlink:href="#DejaVuSans-100"/>
     <use x="313.476562" xlink:href="#DejaVuSans-116"/>
     <use x="352.685547" xlink:href="#DejaVuSans-101"/>
     <use x="414.208984" xlink:href="#DejaVuSans-115"/>
     <use x="466.308594" xlink:href="#DejaVuSans-116"/>
    </g>
   </g>
   <g id="legend_1">
    <g id="patch_7">
     <path d="M 64.6 93.506375 
L 124.246875 93.506375 
Q 126.246875 93.506375 126.246875 91.506375 
L 126.246875 48.472 
Q 126.246875 46.472 124.246875 46.472 
L 64.6 46.472 
Q 62.6 46.472 62.6 48.472 
L 62.6 91.506375 
Q 62.6 93.506375 64.6 93.506375 
z
" style="fill:#ffffff;opacity:0.8;stroke:#cccccc;stroke-linejoin:miter;"/>
    </g>
    <g id="PathCollection_4">
     <g>
      <use style="fill:#1f77b4;stroke:#1f77b4;" x="76.6" xlink:href="#m33ce3b9e57" y="55.445438"/>
     </g>
    </g>
    <g id="text_15">
     <!-- ecm -->
     <g transform="translate(94.6 58.070438)scale(0.1 -0.1)">
      <use xlink:href="#DejaVuSans-101"/>
      <use x="61.523438" xlink:href="#DejaVuSans-99"/>
      <use x="116.503906" xlink:href="#DejaVuSans-109"/>
     </g>
    </g>
    <g id="PathCollection_5">
     <g>
      <use style="fill:#ff7f0e;stroke:#ff7f0e;" x="76.6" xlink:href="#m99f2606765" y="70.123563"/>
     </g>
    </g>
    <g id="text_16">
     <!-- mpqs -->
     <defs>
      <path d="M 14.796875 27.296875 
Q 14.796875 17.390625 18.875 11.75 
Q 22.953125 6.109375 30.078125 6.109375 
Q 37.203125 6.109375 41.296875 11.75 
Q 45.40625 17.390625 45.40625 27.296875 
Q 45.40625 37.203125 41.296875 42.84375 
Q 37.203125 48.484375 30.078125 48.484375 
Q 22.953125 48.484375 18.875 42.84375 
Q 14.796875 37.203125 14.796875 27.296875 
z
M 45.40625 8.203125 
Q 42.578125 3.328125 38.25 0.953125 
Q 33.9375 -1.421875 27.875 -1.421875 
Q 17.96875 -1.421875 11.734375 6.484375 
Q 5.515625 14.40625 5.515625 27.296875 
Q 5.515625 40.1875 11.734375 48.09375 
Q 17.96875 56 27.875 56 
Q 33.9375 56 38.25 53.625 
Q 42.578125 51.265625 45.40625 46.390625 
L 45.40625 54.6875 
L 54.390625 54.6875 
L 54.390625 -20.796875 
L 45.40625 -20.796875 
z
" id="DejaVuSans-113"/>
     </defs>
     <g transform="translate(94.6 72.748563)scale(0.1 -0.1)">
      <use xlink:href="#DejaVuSans-109"/>
      <use x="97.412109" xlink:href="#DejaVuSans-112"/>
      <use x="160.888672" xlink:href="#DejaVuSans-113"/>
      <use x="224.365234" xlink:href="#DejaVuSans-115"/>
     </g>
    </g>
    <g id="PathCollection_6">
     <g>
      <use style="fill:#2ca02c;stroke:#2ca02c;" x="76.6" xlink:href="#m1abcb42387" y="84.801688"/>
     </g>
    </g>
    <g id="text_17">
     <!-- basic -->
     <g transform="translate(94.6 87.426688)scale(0.1 -0.1)">
      <use xlink:href="#DejaVuSans-98"/>
      <use x="63.476562" xlink:href="#DejaVuSans-97"/>
      <use x="124.755859" xlink:href="#DejaVuSans-115"/>
      <use x="176.855469" xlink:href="#DejaVuSans-105"/>
      <use x="204.638672" xlink:href="#DejaVuSans-99"/>
     </g>
    </g>
   </g>
  </g>
 </g>
 <defs>
  <clipPath id="pfdde547e7e">
   <rect height="266.112" width="357.12" x="57.6" y="41.472"/>
  </clipPath>
 </defs>
</svg>
